{"title":"Harry.Potter.And.The.Deathly.Hallows.Part.1.720p.BRRip.x264.Feel","uid":6281961,"size":3772702827,"categoryP":"video","categoryS":"hd___movies","magnet":"?xt=urn:btih:49fe38a9ae2ca529dba245e242864171a84b5172&amp;dn=Harry.Potter.And.The.Deathly.Hallows.Part.1.720p.BRRip.x264.Feel&amp;tr=udp%3A%2F%2Ftracker.openbittorrent.com%3A80&amp;tr=udp%3A%2F%2Fopen.demonii.com%3A1337&amp;tr=udp%3A%2F%2Ftracker.coppersurfer.tk%3A6969&amp;tr=udp%3A%2F%2Fexodus.desync.com%3A6969","seeders":3,"leechers":0,"uploader":"qwersd","files":11,"time":1301473063,"description":"Genre:Adventure | Family | Fantasy\nLanguage:English\nIMDb:http://www.imdb.com/title/tt0926084/\nSource:1080p.BluRay.x264-TWiZTED\nSubtitles:Romana\n\n\nFormat : MPEG-4\nFormat profile : Base Media\nCodec ID : isom\nFile size : 3.51 GiB\nDuration : 2h 26mn\nOverall bit rate : 3 437 Kbps\n\n\nVideo\nFormat profile : &lt;a class=&quot;__cf_email__&quot; href=&quot;/cdn-cgi/l/email-protection&quot; data-cfemail=&quot;ade5c4cac5ede199839c&quot;&gt;[email&amp;#160;protected]&lt;/a&gt;&lt;script cf-hash='f9e31' type=&quot;text/javascript&quot;&gt;\n/* &lt;![CDATA[ */!function(){try{var t=&quot;currentScript&quot;in document?document.currentScript:function(){for(var t=document.getElementsByTagName(&quot;script&quot;),e=t.length;e--;)if(t[e].getAttribute(&quot;cf-hash&quot;))return t[e]}();if(t&amp;&amp;t.previousSibling){var e,r,n,i,c=t.previousSibling,a=c.getAttribute(&quot;data-cfemail&quot;);if(a){for(e=&quot;&quot;,r=parseInt(a.substr(0,2),16),n=2;a.length-n;n+=2)i=parseInt(a.substr(n,2),16)^r,e+=String.fromCharCode(i);e=document.createTextNode(e),c.parentNode.replaceChild(e,c)}}}catch(u){}}();/* ]]&gt; */&lt;/script&gt;\nFormat settings, CABAC : Yes\nFormat settings, ReFrames : 3 frames\nCodec ID : avc1\nCodec ID/Info : Advanced Video Coding\nDuration : 2h 26mn\nBit rate mode : Variable\nBit rate : 3 000 Kbps\nMaximum bit rate : 16.0 Mbps\nWidth : 1 280 pixels\nHeight : 536 pixels\nDisplay aspect ratio : 2.35:1\nFrame rate mode : Constant\nFrame rate : 23.976 fps\nColor space : YUV\nChroma subsampling : 4:2:0\nBit depth : 8 bits\nScan type : Progressive\nBits/(Pixel*Frame) : 0.182\nStream size : 3.05 GiB (87%)\nWriting library : x264 \n\n\nAudio\nID : 2\nFormat : AAC\nFormat/Info : Advanced Audio Codec\nFormat version : Version 4\nFormat profile : LC\nFormat settings, SBR : No\nCodec ID : 40\nDuration : 2h 26mn\nBit rate mode : Variable\nBit rate : 446 Kbps\nMaximum bit rate : 545 Kbps\nChannel(s) : 6 channels\nChannel positions : Front: L C R, Side: L R, LFE\nSampling rate : 48.0 KHz\nStream size : 466 MiB (13%)\n\n\nPlot:\nAs Harry races against time and evil to destroy the Horcruxes, he uncovers the existence of three most powerful objects in the wizarding world: the Deathly Hallows.\n &lt;a href=&quot;\nhttp://www.pix2links.com/images/30472812065405567864.png&quot; rel=&quot;nofollow&quot; target=&quot;_NEW&quot;&gt;\nhttp://www.pix2links.com/images/30472812065405567864.png&lt;/a&gt; &lt;a href=&quot;\nhttp://www.pix2links.com/images/13163875232897336062.png&quot; rel=&quot;nofollow&quot; target=&quot;_NEW&quot;&gt;\nhttp://www.pix2links.com/images/13163875232897336062.png&lt;/a&gt; &lt;a href=&quot;\nhttp://www.pix2links.com/images/43177302819913593194.png&quot; rel=&quot;nofollow&quot; target=&quot;_NEW&quot;&gt;\nhttp://www.pix2links.com/images/43177302819913593194.png&lt;/a&gt; &lt;a href=&quot;\nhttp://www.pix2links.com/images/07550496223125846054.png&quot; rel=&quot;nofollow&quot; target=&quot;_NEW&quot;&gt;\nhttp://www.pix2links.com/images/07550496223125846054.png&lt;/a&gt; &lt;a href=&quot;\nhttp://www.pix2links.com/images/30630456594392927846.png&quot; rel=&quot;nofollow&quot; target=&quot;_NEW&quot;&gt;\nhttp://www.pix2links.com/images/30630456594392927846.png&lt;/a&gt; &lt;a href=&quot;\nhttp://www.pix2links.com/images/34363820421783413977.png&quot; rel=&quot;nofollow&quot; target=&quot;_NEW&quot;&gt;\nhttp://www.pix2links.com/images/34363820421783413977.png&lt;/a&gt;\n\nGreets:\n\nINK,CRYS,IMAGINE,LKRG,FXG,3Li,FLAWL3SS,TA,iLLUSiON,ViSiON,DTRG SAFCuk009,LU,TheFalcon007,MYSTiC,PrisM,Noir,WBZ,LAP,Rx,Kingdom,SAFCuk009+Fabreezy,HDLiTE,TWiZTED,ExtraTorrentRG.ELEKTRI4KA,MAGNAT,CM8\nAnd to all the other p2p grps past and present ","torrent":{"xt":"urn:btih:49fe38a9ae2ca529dba245e242864171a84b5172","amp;dn":"Harry.Potter.And.The.Deathly.Hallows.Part.1.720p.BRRip.x264.Feel","amp;tr":["udp%3A%2F%2Ftracker.openbittorrent.com%3A80","udp%3A%2F%2Fopen.demonii.com%3A1337","udp%3A%2F%2Ftracker.coppersurfer.tk%3A6969","udp%3A%2F%2Fexodus.desync.com%3A6969"],"infoHash":"49fe38a9ae2ca529dba245e242864171a84b5172","infoHashBuffer":{"type":"Buffer","data":[73,254,56,169,174,44,165,41,219,162,69,226,66,134,65,113,168,75,81,114]},"announce":[],"urlList":[]}}